<svg width="16" height="18" viewBox="0 0 16 18" fill="none" xmlns="http://www.w3.org/2000/svg">
<path id="&#232;&#183;&#175;&#229;&#190;&#132; 4258" d="M12.5086 12.6288C11.9014 12.6294 11.3166 12.8586 10.8706 13.2708L4.93362 9.8078C5.03368 9.42523 5.03368 9.02336 4.93362 8.6408L10.8086 5.2118C11.2554 5.634 11.8394 5.88098 12.4535 5.90744C13.0676 5.9339 13.6707 5.73806 14.1522 5.35585C14.6336 4.97364 14.9611 4.43068 15.0746 3.82655C15.1881 3.22242 15.08 2.59762 14.7701 2.06675C14.4602 1.53588 13.9693 1.13453 13.3874 0.9363C12.8056 0.738074 12.1717 0.756265 11.6022 0.987537C11.0327 1.21881 10.5656 1.64766 10.2867 2.19543C10.0078 2.7432 9.93566 3.37317 10.0836 3.9698L4.20862 7.3968C3.85278 7.06365 3.40732 6.8418 2.92704 6.75854C2.44676 6.67528 1.95261 6.73423 1.5054 6.92816C1.05819 7.12208 0.67743 7.44252 0.409965 7.85003C0.1425 8.25754 0 8.73435 0 9.2218C0 9.70924 0.1425 10.1861 0.409965 10.5936C0.67743 11.0011 1.05819 11.3215 1.5054 11.5154C1.95261 11.7094 2.44676 11.7683 2.92704 11.6851C3.40732 11.6018 3.85278 11.3799 4.20862 11.0468L10.1466 14.5098C10.1031 14.6886 10.0806 14.8718 10.0796 15.0558C10.0792 15.5363 10.2213 16.0061 10.488 16.4058C10.7547 16.8055 11.1339 17.1172 11.5777 17.3013C12.0215 17.4855 12.51 17.5339 12.9813 17.4404C13.4526 17.3469 13.8856 17.1157 14.2255 16.7761C14.5654 16.4364 14.7969 16.0036 14.8908 15.5324C14.9847 15.0612 14.9367 14.5727 14.7529 14.1287C14.5691 13.6848 14.2578 13.3053 13.8583 13.0383C13.4588 12.7713 12.9891 12.6288 12.5086 12.6288Z" fill="#979797"/>
</svg>
